<svg aria-hidden="true" style="position: absolute; width: 0; height: 0; overflow: hidden;" version="1.1" xmlns="http://www.w3.org/2000/svg" xmlns:xlink="http://www.w3.org/1999/xlink">
    <defs>
        <symbol id="icon-moon" viewBox="0 0 32 32">
            <path d="M18.919 0.266c-5.882 1.211-10.304 6.417-10.304 12.657 0 7.137 5.786 12.923 12.923 12.923 0.005 0 0.011 0 0.017 0 3.679 0 6.999-1.542 9.347-4.015l0.005-0.006c-2.33 5.957-8.126 10.175-14.907 10.175-8.837 0-16-7.163-16-16s7.163-16 16-16c0.997 0 1.973 0.091 2.919 0.266z"></path>
        </symbol>
        <symbol id="icon-sun" viewBox="0 0 32 32">
            <path d="M14.769 1.231c0-0.68 0.551-1.231 1.231-1.231s1.231 0.551 1.231 1.231v0 3.692c0 0.68-0.551 1.231-1.231 1.231s-1.231-0.551-1.231-1.231v0-3.692zM22.154 16c0 3.399-2.755 6.154-6.154 6.154s-6.154-2.755-6.154-6.154v0c0-3.399 2.755-6.154 6.154-6.154s6.154 2.755 6.154 6.154v0zM16 25.846c-0.68 0-1.231 0.551-1.231 1.231v0 3.692c0 0.68 0.551 1.231 1.231 1.231s1.231-0.551 1.231-1.231v0-3.692c0-0.68-0.551-1.231-1.231-1.231v0zM30.769 14.769c0.68 0 1.231 0.551 1.231 1.231s-0.551 1.231-1.231 1.231v0h-3.692c-0.68 0-1.231-0.551-1.231-1.231s0.551-1.231 1.231-1.231v0h3.692zM6.154 16c0-0.68-0.551-1.231-1.231-1.231v0h-3.692c-0.68 0-1.231 0.551-1.231 1.231s0.551 1.231 1.231 1.231v0h3.692c0.68 0 1.231-0.551 1.231-1.231v0zM25.573 4.687c0.224-0.232 0.538-0.376 0.885-0.376 0.68 0 1.231 0.551 1.231 1.231 0 0.347-0.144 0.661-0.375 0.885l-2.61 2.611c-0.223 0.223-0.531 0.361-0.871 0.361-0.68 0-1.231-0.551-1.231-1.231 0-0.34 0.138-0.647 0.36-0.87l2.61-2.61zM9.038 22.962c-0.223-0.223-0.53-0.36-0.87-0.36s-0.647 0.138-0.87 0.36l-2.61 2.61c-0.232 0.224-0.376 0.538-0.376 0.885 0 0.68 0.551 1.231 1.231 1.231 0.347 0 0.661-0.144 0.885-0.375l2.611-2.61c0.223-0.223 0.361-0.531 0.361-0.871s-0.138-0.648-0.361-0.871v0zM27.314 25.573c0.223 0.223 0.36 0.53 0.36 0.87 0 0.68-0.551 1.231-1.231 1.231-0.34 0-0.648-0.138-0.871-0.361v0l-2.61-2.609c-0.223-0.223-0.361-0.531-0.361-0.871 0-0.68 0.551-1.231 1.231-1.231 0.34 0 0.647 0.138 0.87 0.36l2.61 2.61zM9.036 9.038c0.223-0.223 0.36-0.53 0.36-0.87s-0.138-0.647-0.36-0.87l-2.609-2.61c-0.221-0.214-0.523-0.346-0.855-0.346-0.68 0-1.231 0.551-1.231 1.231 0 0.332 0.132 0.634 0.346 0.855l2.609 2.61c0.223 0.223 0.531 0.361 0.871 0.361s0.648-0.138 0.871-0.361v0z"></path>
        </symbol>
        <symbol id="icon-check" viewBox="0 0 40 32">
            <path stroke-linejoin="miter" stroke-linecap="butt" stroke-miterlimit="4" stroke-width="8" d="M6.668 17.012l8.984 8.988 20-20"></path>
        </symbol>
    </defs>
</svg>